<svg id="signwhite_copy" data-name="signwhite copy" xmlns="http://www.w3.org/2000/svg" width="252.875" height="67" viewBox="0 0 252.875 67">
  <metadata><?xpacket begin="﻿" id="W5M0MpCehiHzreSzNTczkc9d"?>
<x:xmpmeta xmlns:x="adobe:ns:meta/" x:xmptk="Adobe XMP Core 5.6-c142 79.160924, 2017/07/13-01:06:39        ">
   <rdf:RDF xmlns:rdf="http://www.w3.org/1999/02/22-rdf-syntax-ns#">
      <rdf:Description rdf:about=""/>
   </rdf:RDF>
</x:xmpmeta>
                                                                                                    
                                                                                                    
                                                                                                    
                                                                                                    
                                                                                                    
                                                                                                    
                                                                                                    
                                                                                                    
                                                                                                    
                                                                                                    
                                                                                                    
                                                                                                    
                                                                                                    
                                                                                                    
                                                                                                    
                                                                                                    
                                                                                                    
                                                                                                    
                                                                                                    
                                                                                                    
                           
<?xpacket end="w"?></metadata>
<defs>
    <style>
      .cls-1 {
        fill: #fff;
        fill-rule: evenodd;
      }
    </style>
  </defs>
  <path class="cls-1" d="M70.278,30.189c-0.7.833-2.828,1.541-4.646,1.541-3.333,0-5.275.029-6.828,0.054-1,.017-1.786.028-2.712,0.028-6.167,0-10.65,1.626-10.65,3.868v2.613c-9.761,1.164-22.34,4-22.34,9.211V73.821c0,5.213,12.58,8.047,22.34,9.212v2.612c0,2.241,4.483,3.87,10.65,3.87,0.926,0,1.714.012,2.712,0.027,1.553,0.025,3.495.054,6.828,0.054,1.819,0,3.951.707,4.646,1.542,2.088,2.481,8.7,3.162,13.058,3.031H215.75c4.355,0.131,10.973-.55,13.055-3.031,0.7-.834,2.828-1.542,4.65-1.542,3.333,0,5.272-.029,6.825-0.054,1-.015,1.789-0.027,2.712-0.027,6.164,0,10.65-1.629,10.65-3.87V83.033c9.769-1.165,22.337-4,22.337-9.212V47.5c0-5.211-12.568-8.047-22.337-9.211V35.68c0-2.242-4.486-3.868-10.65-3.868-0.923,0-1.715-.013-2.712-0.028-1.553-.025-3.492-0.054-6.825-0.054-1.822,0-3.954-.707-4.65-1.541-2.082-2.483-8.7-3.162-13.055-3.034H83.336C78.979,27.027,72.366,27.706,70.278,30.189Zm156.9,0.146c0.8,0.957,3.369,1.947,6.281,1.947,3.292,0,5.212.031,6.75,0.055,1.013,0.017,1.822.029,2.787,0.029,5.19,0,8.96,1.394,8.96,3.313v3.008c9.408,1.017,22.34,3.709,22.34,8.816V73.821c0,5.108-12.932,7.8-22.34,8.817v3.007c0,1.919-3.77,3.314-8.96,3.314-0.965,0-1.774.013-2.787,0.029-1.538.024-3.458,0.054-6.75,0.054-2.912,0-5.48.99-6.281,1.947-1.813,2.168-7.6,2.749-11.346,2.627H83.262c-3.749.121-9.537-.459-11.349-2.627-0.8-.957-3.369-1.947-6.281-1.947-3.3,0-5.209-.03-6.747-0.053-1.024-.017-1.825-0.03-2.793-0.03-5.191,0-8.957-1.395-8.957-3.314V82.637C37.724,81.622,24.8,78.929,24.8,73.821V47.5c0-5.107,12.927-7.8,22.338-8.816V35.68c0-1.919,3.766-3.313,8.957-3.313,0.967,0,1.768-.012,2.793-0.029,1.539-.024,3.449-0.055,6.747-0.055,2.912,0,5.48-.991,6.281-1.947,1.812-2.167,7.6-2.748,11.349-2.625H215.828C219.576,27.587,225.361,28.169,227.174,30.336Z" transform="translate(-23.094 -27.156)"/>
  <path class="cls-1" d="M73.609,32.078C72.823,32.972,70.3,33.9,67.44,33.9c-3.239,0-5.116.029-6.627,0.051-1.006.016-1.793,0.027-2.743,0.027-5.1,0-8.8,1.3-8.8,3.093v2.808c-9.243.949-21.94,3.462-21.94,8.229V72.669c0,4.768,12.7,7.282,21.94,8.23v2.807c0,1.792,3.7,3.094,8.8,3.094,0.95,0,1.737.012,2.743,0.028,1.511,0.021,3.388.049,6.627,0.049,2.86,0,5.382.924,6.169,1.817,1.78,2.024,7.466,2.566,11.148,2.452H214.965c3.682,0.113,9.365-.428,11.145-2.452,0.787-.893,3.309-1.817,6.17-1.817,3.233,0,5.119-.028,6.629-0.05,1-.015,1.79-0.027,2.738-0.027,5.1,0,8.8-1.3,8.8-3.094V80.9c9.241-.948,21.943-3.462,21.943-8.23V48.1c0-4.767-12.7-7.28-21.943-8.229V37.067c0-1.791-3.7-3.093-8.8-3.093-0.948,0-1.743-.011-2.738-0.027-1.51-.022-3.4-0.051-6.629-0.051-2.861,0-5.383-.925-6.17-1.818-1.78-2.022-7.463-2.565-11.145-2.45H84.757C81.075,29.513,75.39,30.056,73.609,32.078Zm147.7,0.413c1.356,1.537,5.674,2.96,10.975,2.96s6.776,0.079,9.367.079,3.816,0.728,3.816,1.537v4s21.946,1.347,21.946,7.038V72.669c0,5.69-21.946,7.038-21.946,7.038v4c0,0.809-1.226,1.539-3.816,1.539s-4.072.077-9.367,0.077-9.619,1.423-10.975,2.963-6.043,1.306-6.043,1.306H84.455s-4.685.228-6.04-1.308-5.674-2.963-10.974-2.963-6.774-.077-9.37-0.077-3.82-.73-3.82-1.539v-4s-21.934-1.347-21.934-7.038V48.1c0-5.691,21.935-7.038,21.935-7.038v-4c0-.809,1.238-1.537,3.82-1.537s4.075-.079,9.37-0.079,9.616-1.423,10.974-2.96,6.04-1.309,6.04-1.309H215.262S219.956,30.953,221.305,32.492Z" transform="translate(-23.094 -27.156)"/>
  <path id="club_L" data-name="club L" class="cls-1" d="M53.547,55.366A6.979,6.979,0,0,1,52.063,59.4c-0.172.262,0.057,0.435,0.257,0.232a3.523,3.523,0,0,1,2.827-1.191c1.713,0,2.97,1.51,2.97,4.414,0,3.137-1.884,5.46-4,5.46-2.057,0-4.027-1.917-4.6-3.166a1.033,1.033,0,0,0-.572-0.726c-0.142,0-.2.174-0.2,0.407,0,2.614,1.085,5.062,2.337,5.754,0.04,0.022.373,0.335-.242,0.469-0.5.112-3.842,0.379-4.931-.32-0.141-.09,0-0.285.143-0.32,1.736-.433,2.094-4.365,2.094-5.874,0-.232-0.057-0.407-0.228-0.407a0.591,0.591,0,0,0-.429.436,5.206,5.206,0,0,1-4.455,3.165c-2.284,0-4-2.672-4-5.227s1.371-4.646,3.313-4.646a6.422,6.422,0,0,1,3.084,1.22c0.2,0.116.343-.116,0.143-0.262a3.844,3.844,0,0,1-1.628-3.514c0-1.046,1.028-3.253,4.683-3.253S53.547,53.508,53.547,55.366Z" transform="translate(-23.094 -27.156)"/>
  <path id="club_R" data-name="club R" class="cls-1" d="M255.1,55.366a6.98,6.98,0,0,1-1.484,4.037c-0.172.262,0.057,0.435,0.256,0.232a3.525,3.525,0,0,1,2.828-1.191c1.713,0,2.969,1.51,2.969,4.414,0,3.137-1.884,5.46-4,5.46-2.056,0-4.027-1.917-4.6-3.166a1.031,1.031,0,0,0-.572-0.726c-0.142,0-.2.174-0.2,0.407,0,2.614,1.085,5.062,2.336,5.754,0.041,0.022.374,0.335-.241,0.469-0.5.112-3.842,0.379-4.931-.32-0.141-.09,0-0.285.142-0.32,1.737-.433,2.094-4.365,2.094-5.874,0-.232-0.057-0.407-0.228-0.407a0.592,0.592,0,0,0-.429.436,5.2,5.2,0,0,1-4.454,3.165c-2.285,0-4-2.672-4-5.227s1.371-4.646,3.313-4.646a6.425,6.425,0,0,1,3.084,1.22c0.2,0.116.343-.116,0.143-0.262a3.844,3.844,0,0,1-1.628-3.514c0-1.046,1.029-3.253,4.684-3.253S255.1,53.508,255.1,55.366Z" transform="translate(-23.094 -27.156)"/>
  <path id="Stoutlabs" class="cls-1" d="M73.072,72.145a10.175,10.175,0,0,0,1.559,2.608,6.78,6.78,0,0,0,2.348,1.816,7.133,7.133,0,0,0,3.1.661,7.918,7.918,0,0,0,5.447-1.863,6.691,6.691,0,0,0,2.106-5.291,6.457,6.457,0,0,0-.148-1.36q-0.149-.689-0.306-1.211a5.476,5.476,0,0,0-.585-1.22q-0.427-.7-0.659-1.081a10.662,10.662,0,0,0-.854-1.127q-0.622-.745-0.854-1.006T83.251,62q-0.743-.81-0.928-1.015l-4.7-5.123a13.844,13.844,0,0,1-1.939-2.608,5.117,5.117,0,0,1-.678-2.5,3.977,3.977,0,0,1,1.253-3.186,4.982,4.982,0,0,1,3.368-1.081,4.465,4.465,0,0,1,3.517,1.528,7.541,7.541,0,0,1,1.717,3.931L84.9,52.212l2.376-.745-0.056-.3A9.106,9.106,0,0,0,84.681,46a7.114,7.114,0,0,0-5.048-1.779,7.54,7.54,0,0,0-5.29,1.882,6.481,6.481,0,0,0-2.06,5.03,6.233,6.233,0,0,0,.872,3.167,17.976,17.976,0,0,0,2.505,3.242l4.992,5.272a27.173,27.173,0,0,1,3.2,3.95A6.559,6.559,0,0,1,84.94,70.32a4.69,4.69,0,0,1-1.188,3.428,4.492,4.492,0,0,1-3.359,1.211,5.141,5.141,0,0,1-2.422-.559,4.563,4.563,0,0,1-1.717-1.537,8.9,8.9,0,0,1-1.03-2.114A11.913,11.913,0,0,1,74.7,68.27L72.209,69A13.515,13.515,0,0,0,73.072,72.145Zm23.84,4.583V46.94h6.273V44.667H87.873V46.94H94.09V76.728h2.821Zm15.869,0.5q8.147,0,8.147-9.8V54a17.805,17.805,0,0,0-.251-3.111,10.52,10.52,0,0,0-.844-2.673,7.061,7.061,0,0,0-1.5-2.124,6.46,6.46,0,0,0-2.32-1.369,10.619,10.619,0,0,0-6.459,0,6.452,6.452,0,0,0-2.32,1.369,7.061,7.061,0,0,0-1.5,2.124,10.522,10.522,0,0,0-.845,2.673,17.907,17.907,0,0,0-.25,3.111V67.432Q104.632,77.231,112.78,77.231Zm0-2.273q-5.328,0-5.327-6.893v-14.7q0-6.874,5.327-6.874t5.326,6.874v14.7Q118.106,74.958,112.78,74.958Zm12.713-3.493a8,8,0,0,0,.8,2.273,5.939,5.939,0,0,0,1.494,1.844,6.884,6.884,0,0,0,2.375,1.2,11.505,11.505,0,0,0,3.369.447q7.962,0,7.962-8.383V44.667h-2.8V69.5a6.09,6.09,0,0,1-1.187,4.1,5.039,5.039,0,0,1-3.972,1.36q-2.95,0-4.195-1.351a5.893,5.893,0,0,1-1.243-4.108V44.667H125.27V68.848A14.14,14.14,0,0,0,125.493,71.465Zm26.929,5.263V46.94H158.7V44.667H143.384V46.94H149.6V76.728h2.821Zm20.063,0V74.455h-8.927V44.667h-2.821V76.728h11.748Zm8.872-29.118,3.359,18.89h-6.682ZM177.7,68.382h7.368l1.6,8.346h2.858l-6.31-32.061h-3.675l-6.31,32.061h2.839Zm18.226-21.554H199.6q4.565,0,4.565,6.036a10.962,10.962,0,0,1-.185,2.086,6.8,6.8,0,0,1-.594,1.761,3.082,3.082,0,0,1-1.151,1.267,3.335,3.335,0,0,1-1.782.456h-4.528V46.828Zm0,13.786h5.048a3.913,3.913,0,0,1,1.717.354,3.115,3.115,0,0,1,1.169.941,4.806,4.806,0,0,1,.7,1.463,9.312,9.312,0,0,1,.362,1.77,19.817,19.817,0,0,1,.093,2.031q0,1.267-.1,2.291a12.291,12.291,0,0,1-.371,2.012,5.434,5.434,0,0,1-.715,1.639,3.363,3.363,0,0,1-1.169,1.052,3.432,3.432,0,0,1-1.689.4h-5.048V60.614Zm4.6,16.114a8.663,8.663,0,0,0,3.156-.522,5.622,5.622,0,0,0,2.115-1.36,6.211,6.211,0,0,0,1.253-2.133,11.591,11.591,0,0,0,.631-2.58,24.62,24.62,0,0,0,.158-2.962,12.177,12.177,0,0,0-.2-2.208,11.836,11.836,0,0,0-.65-2.226,6.521,6.521,0,0,0-1.28-2.021,5.5,5.5,0,0,0-1.968-1.369,5.306,5.306,0,0,0,2.534-2.645,8.857,8.857,0,0,0,.918-3.894A13.992,13.992,0,0,0,207,50.4a8.56,8.56,0,0,0-.705-2.2,6.169,6.169,0,0,0-1.308-1.844,5.855,5.855,0,0,0-2.079-1.23,8.555,8.555,0,0,0-2.932-.466h-6.867V76.728h7.423ZM211.3,72.145a10.189,10.189,0,0,0,1.559,2.608,6.779,6.779,0,0,0,2.348,1.816,7.133,7.133,0,0,0,3.1.661,7.921,7.921,0,0,0,5.448-1.863,6.691,6.691,0,0,0,2.106-5.291,6.509,6.509,0,0,0-.148-1.36q-0.15-.689-0.307-1.211a5.483,5.483,0,0,0-.584-1.22q-0.427-.7-0.659-1.081a10.6,10.6,0,0,0-.854-1.127q-0.621-.745-0.854-1.006T221.482,62q-0.743-.81-0.928-1.015l-4.695-5.123a13.857,13.857,0,0,1-1.94-2.608,5.116,5.116,0,0,1-.677-2.5,3.978,3.978,0,0,1,1.252-3.186,4.984,4.984,0,0,1,3.369-1.081,4.464,4.464,0,0,1,3.517,1.528,7.543,7.543,0,0,1,1.717,3.931l0.037,0.261,2.375-.745-0.055-.3A9.109,9.109,0,0,0,222.911,46a7.113,7.113,0,0,0-5.048-1.779,7.537,7.537,0,0,0-5.289,1.882,6.48,6.48,0,0,0-2.061,5.03,6.232,6.232,0,0,0,.873,3.167,17.948,17.948,0,0,0,2.5,3.242l4.993,5.272a27.212,27.212,0,0,1,3.2,3.95,6.558,6.558,0,0,1,1.086,3.558,4.688,4.688,0,0,1-1.188,3.428,4.491,4.491,0,0,1-3.359,1.211A5.141,5.141,0,0,1,216.2,74.4a4.563,4.563,0,0,1-1.717-1.537,8.939,8.939,0,0,1-1.03-2.114,11.9,11.9,0,0,1-.529-2.478L210.439,69A13.52,13.52,0,0,0,211.3,72.145Z" transform="translate(-23.094 -27.156)"/>
</svg>
