<svg id="signwhite_copy" data-name="signwhite copy" xmlns="http://www.w3.org/2000/svg" width="500" height="273" viewBox="0 0 500 273">
<defs>
    <style>
      .cls-1, .cls-2 {
        fill: #fef1f1;
        fill-rule: evenodd;
      }

      .cls-2, .cls-3 {
        stroke: #fef1f1;
      }

      .cls-2 {
        stroke-width: 1px;
      }

      .cls-3 {
        fill: none;
        stroke-width: 2px;
      }
    </style>
  </defs>
  <path id="_-_since_2004_-" data-name="- since 2004 -" class="cls-1" d="M526.563,457.778H536.78a5.883,5.883,0,0,1,5.318-3.4H660.736a5.88,5.88,0,0,1,5.317,3.4h6.923V461.5a9.418,9.418,0,1,1,0,18.835v3.716h-6.82a5.882,5.882,0,0,1-5.42,3.628H542.1a5.881,5.881,0,0,1-5.42-3.628H526.563v-3.716a9.418,9.418,0,1,1,0-18.835v-3.719Zm1.295,13.669h6.82v-1.639h-6.82v1.639Zm13.2,4.219h1.333l1.082-.677a8.5,8.5,0,0,0,3.769.847c2.713,0,5.04-.942,5.04-3.183,0-2.513-2.056-3.068-4.8-3.515s-3.247-.752-3.247-1.355c0-.42.67-0.758,1.759-0.758a11.645,11.645,0,0,1,5.629,1.74v-3.251H550.7l-1.326.732a11.719,11.719,0,0,0-3.6-.644c-3.018,0-4.858,1.192-4.858,3.156,0,2.059,1.569,2.94,4.925,3.373,2.51,0.325,3,.874,3,1.4,0,0.582-.791.786-1.657,0.786a11.4,11.4,0,0,1-6.13-2.059v3.406Zm13.9-.094h5.068l-1.57-1.721V465.86h-5.068l1.57,1.72v7.992Zm5.758,0h5.71l-2.036-1.721v-4.4l6.7,6.123h1.84V467.58l1.7-1.72h-5.433l1.894,1.72v3.156l-5.453-4.876h-5.17l2.084,1.91v6.081Zm14.621-4.856c0,3.962,3.64,5.12,6.732,5.12,3.268,0,5.832-1.436,5.832-4.016h-2.07a2.717,2.717,0,0,1-3.018,2.553,3.328,3.328,0,0,1-3.5-3.657c0-1.937.941-3.664,3.214-3.664a3.555,3.555,0,0,1,3.485,2.587l1.793-.339v-3.44h-1.414l-0.494.643a8.119,8.119,0,0,0-3.837-.9C578.684,465.6,575.335,467.106,575.335,470.716Zm13.491,4.856h12.226v-3.2l-2.767,1.653h-3.992v-2.879h4.073v-1.49h-4.073v-2.241h3.992l2.7,1.808,0.135-3.359H588.826l1.9,1.72v6.271Zm18.7,0h10.3v-4.193l-2.74,2.4h-4.486a1.963,1.963,0,0,1-.027-0.285c0-.833,1.292-1.212,3.024-1.578,2.1-.44,4.459-1.178,4.459-3.2,0-1.984-1.678-3.122-5.419-3.122-2.788,0-5.291.583-5.291,2.953a4.955,4.955,0,0,0,.054.691h3.011c0-1.619.683-2.194,2.016-2.194,1.13,0,2.016.514,2.016,1.618,0,1.206-1.17,1.443-3.3,1.91-1.928.42-3.985,1.091-3.985,3.359A4.036,4.036,0,0,0,607.527,475.572Zm12.463-4.856c0,3.63,3.079,5.12,5.9,5.12s5.914-1.551,5.914-5.12-3.086-5.114-5.914-5.114S619.99,467.146,619.99,470.716Zm3.843,0c0-2.12.657-3.793,2.057-3.793,1.468,0,2.071,1.673,2.071,3.793,0,2.086-.67,3.731-2.071,3.731S623.833,472.842,623.833,470.716Zm9.865,0c0,3.63,3.079,5.12,5.9,5.12s5.914-1.551,5.914-5.12-3.086-5.114-5.914-5.114S633.7,467.146,633.7,470.716Zm3.843,0c0-2.12.657-3.793,2.057-3.793,1.468,0,2.07,1.673,2.07,3.793,0,2.086-.669,3.731-2.07,3.731S637.541,472.842,637.541,470.716Zm9.053,2.35h6.57v0.785l-2.1,1.721h7.368l-1.834-1.721v-0.785h2.646v-1.395h-2.646V465.86h-4.08l-5.92,6.42v0.786Zm3.065-1.395,3.5-4.145v4.145h-3.5Zm15.2-.224h6.82v-1.639h-6.82v1.639Z" transform="translate(-350 -263)"/>
  <path class="cls-1" d="M481.348,465.638c4.365-2.393,8.321-5.1,12.952-6.819a21.227,21.227,0,0,1,9.837-1.276,15.7,15.7,0,0,1,7.8,3.135c0.16,0.13.066,0.187-.119,0.106-1.362-.6-6.094-4.223-17.364,1.1-8.783,4.149-13.786,8.107-19.886,8.074a4.477,4.477,0,0,1-4.542-3.429c-0.955-5.358,5.2-8.1,9.276-7.944,2.65,0.1,4.3,1.118,4.729,2.428,0.1,0.316.142,0.567-.189,0.364a4.538,4.538,0,0,0-.595-0.3c-1.516-.587-6.3-1.895-10.364.27-2,1.066-3.714,3.732-2.083,5.819a3.8,3.8,0,0,0,3.229,1.2C476.682,468.29,479.016,466.917,481.348,465.638Zm17.93-4.114a17.952,17.952,0,0,1,8.052-1.34,13.912,13.912,0,0,1,5.715,2.145c0.113,0.095.045,0.177-.1,0.108-3.568-1.708-7.412-1.251-11.681,1.075-4.656,2.538-14.628,8.532-20.144,9.6-3.1.6-6.21,0.793-9.012-.716a5.991,5.991,0,0,1-3.09-7.124c0.1-.245.113-0.076,0.1-0.017a4.876,4.876,0,0,0,2.13,4.951,7.806,7.806,0,0,0,4.389,1.069c4.3-.163,8.208-2.091,12.042-4.025C491.582,465.279,495.2,463.038,499.278,461.524Z" transform="translate(-350 -263)"/>
  <path id="Shape_115_copy" data-name="Shape 115 copy" class="cls-1" d="M719.2,465.638c-4.365-2.393-8.321-5.1-12.952-6.819a21.227,21.227,0,0,0-9.837-1.276,15.7,15.7,0,0,0-7.8,3.135c-0.16.13-.066,0.187,0.119,0.106,1.363-.6,6.094-4.223,17.364,1.1,8.783,4.149,13.786,8.107,19.887,8.074a4.476,4.476,0,0,0,4.541-3.429c0.955-5.358-5.2-8.1-9.276-7.944-2.649.1-4.3,1.118-4.729,2.428-0.1.316-.142,0.567,0.189,0.364a4.538,4.538,0,0,1,.6-0.3c1.516-.587,6.3-1.895,10.365.27,2,1.066,3.713,3.732,2.082,5.819a3.8,3.8,0,0,1-3.229,1.2C723.866,468.29,721.532,466.917,719.2,465.638Zm-17.93-4.114a17.952,17.952,0,0,0-8.052-1.34,13.912,13.912,0,0,0-5.715,2.145c-0.113.095-.045,0.177,0.1,0.108,3.568-1.708,7.412-1.251,11.681,1.075,4.656,2.538,14.628,8.532,20.144,9.6,3.1,0.6,6.21.793,9.012-.716a5.991,5.991,0,0,0,3.09-7.124c-0.1-.245-0.113-0.076-0.1-0.017a4.874,4.874,0,0,1-2.13,4.951,7.8,7.8,0,0,1-4.389,1.069c-4.3-.163-8.208-2.091-12.042-4.025C708.966,465.279,705.353,463.038,701.27,461.524Z" transform="translate(-350 -263)"/>
  <path class="cls-1" d="M475.317,344.133c-1.092,1.305-4.44,2.413-7.3,2.413-5.233,0-8.282.045-10.721,0.084-1.566.026-2.8,0.043-4.258,0.043-9.683,0-16.722,2.546-16.722,6.057v4.091c-15.326,1.823-35.078,6.263-35.078,14.423V412.45c0,8.163,19.752,12.6,35.078,14.424v4.089c0,3.509,7.039,6.059,16.722,6.059,1.454,0,2.692.019,4.258,0.043,2.439,0.04,5.488.085,10.721,0.085,2.856,0,6.2,1.108,7.3,2.414,3.279,3.884,13.661,4.951,20.5,4.746H703.73c6.837,0.2,17.229-.862,20.5-4.746,1.093-1.306,4.441-2.414,7.3-2.414,5.234,0,8.277-.045,10.716-0.085,1.566-.024,2.809-0.043,4.258-0.043,9.679,0,16.722-2.55,16.722-6.059v-4.089c15.34-1.825,35.073-6.261,35.073-14.424V371.244c0-8.16-19.733-12.6-35.073-14.423V352.73c0-3.511-7.043-6.057-16.722-6.057-1.449,0-2.692-.02-4.258-0.043-2.439-.039-5.482-0.084-10.716-0.084-2.86,0-6.208-1.108-7.3-2.413-3.269-3.888-13.661-4.951-20.5-4.75H495.82C488.978,339.182,478.6,340.245,475.317,344.133Zm246.35,0.229c1.257,1.5,5.29,3.049,9.862,3.049,5.168,0,8.184.049,10.6,0.086,1.59,0.027,2.86.045,4.375,0.045,8.15,0,14.068,2.184,14.068,5.188v4.71c14.772,1.592,35.078,5.807,35.078,13.8V412.45c0,8-20.306,12.215-35.078,13.805v4.708c0,3.006-5.918,5.19-14.068,5.19-1.515,0-2.785.02-4.375,0.045-2.415.037-5.431,0.084-10.6,0.084-4.572,0-8.605,1.551-9.862,3.049-2.847,3.395-11.93,4.3-17.816,4.114H495.7c-5.886.19-14.974-.719-17.82-4.114-1.258-1.5-5.29-3.049-9.862-3.049-5.178,0-8.178-.047-10.594-0.083-1.608-.026-2.866-0.046-4.385-0.046-8.151,0-14.063-2.184-14.063-5.19v-4.708c-14.777-1.59-35.074-5.807-35.074-13.805V371.244c0-8,20.3-12.212,35.074-13.8v-4.71c0-3,5.912-5.188,14.063-5.188,1.519,0,2.777-.018,4.385-0.045,2.416-.037,5.416-0.086,10.594-0.086,4.572,0,8.6-1.551,9.862-3.049,2.846-3.392,11.934-4.3,17.82-4.109H703.851C709.737,340.059,718.82,340.97,721.667,344.362Z" transform="translate(-350 -263)"/>
  <path class="cls-1" d="M480.547,347.091c-1.235,1.4-5.2,2.846-9.686,2.846-5.086,0-8.033.046-10.406,0.081-1.58.024-2.815,0.042-4.306,0.042-8.006,0-13.814,2.038-13.814,4.842v4.4c-14.514,1.486-34.449,5.42-34.449,12.884v38.464c0,7.466,19.935,11.4,34.449,12.886v4.395c0,2.805,5.808,4.844,13.814,4.844,1.491,0,2.726.019,4.306,0.043,2.373,0.034,5.32.078,10.406,0.078,4.491,0,8.451,1.447,9.686,2.846,2.8,3.168,11.723,4.017,17.5,3.839H702.5c5.781,0.178,14.7-.671,17.5-3.839,1.234-1.4,5.2-2.846,9.686-2.846,5.076,0,8.038-.044,10.41-0.079,1.562-.023,2.81-0.042,4.3-0.042,8,0,13.818-2.039,13.818-4.844v-4.395c14.509-1.484,34.454-5.42,34.454-12.886V372.183c0-7.464-19.945-11.4-34.454-12.884v-4.4c0-2.8-5.813-4.842-13.818-4.842-1.488,0-2.736-.018-4.3-0.042-2.372-.035-5.334-0.081-10.41-0.081-4.491,0-8.452-1.448-9.686-2.846-2.8-3.166-11.718-4.017-17.5-3.836H498.051C492.27,343.074,483.343,343.925,480.547,347.091Zm231.9,0.647c2.128,2.406,8.908,4.635,17.231,4.635s10.64,0.123,14.708.123,5.992,1.139,5.992,2.406v6.261s34.459,2.109,34.459,11.02v38.464c0,8.909-34.459,11.019-34.459,11.019v6.262c0,1.267-1.925,2.41-5.992,2.41s-6.394.12-14.708,0.12-15.1,2.228-17.231,4.639-9.489,2.046-9.489,2.046H497.576s-7.356.358-9.484-2.047-8.909-4.639-17.231-4.639-10.637-.12-14.712-0.12c-4.053,0-6-1.143-6-2.41v-6.262s-34.44-2.11-34.44-11.019V372.183c0-8.911,34.44-11.02,34.44-11.02V354.9c0-1.267,1.945-2.406,6-2.406,4.075,0,6.4-.123,14.712-0.123s15.1-2.229,17.231-4.635,9.484-2.049,9.484-2.049H702.963S710.333,345.328,712.452,347.738Z" transform="translate(-350 -263)"/>
  <path id="club_L" data-name="club L" class="cls-1" d="M449.047,383.555a10.911,10.911,0,0,1-2.331,6.321c-0.269.409,0.09,0.681,0.4,0.363a5.536,5.536,0,0,1,4.439-1.865c2.69,0,4.663,2.365,4.663,6.912,0,4.912-2.959,8.549-6.277,8.549-3.229,0-6.323-3-7.219-4.957a1.62,1.62,0,0,0-.9-1.136c-0.223,0-.313.272-0.313,0.636,0,4.094,1.7,7.926,3.669,9.01,0.063,0.035.586,0.524-.379,0.734-0.793.175-6.033,0.595-7.743-.5-0.221-.141.006-0.446,0.224-0.5,2.727-.678,3.288-6.834,3.288-9.2,0-.364-0.09-0.637-0.359-0.637a0.925,0.925,0,0,0-.673.682c-1.031,2.137-3.407,4.956-6.995,4.956s-6.277-4.183-6.277-8.184,2.152-7.276,5.2-7.276c1.794,0,3.678,1.183,4.842,1.911,0.315,0.181.539-.183,0.225-0.41-1.928-1.41-2.556-3.047-2.556-5.5,0-1.637,1.615-5.092,7.353-5.092S449.047,380.644,449.047,383.555Z" transform="translate(-350 -263)"/>
  <path id="club_R" data-name="club R" class="cls-1" d="M765.518,383.555a10.911,10.911,0,0,1-2.331,6.321c-0.27.409,0.09,0.681,0.4,0.363a5.54,5.54,0,0,1,4.439-1.865c2.691,0,4.664,2.365,4.664,6.912,0,4.912-2.959,8.549-6.277,8.549-3.229,0-6.323-3-7.219-4.957a1.62,1.62,0,0,0-.9-1.136c-0.223,0-.313.272-0.313,0.636,0,4.094,1.7,7.926,3.668,9.01,0.064,0.035.587,0.524-.379,0.734-0.793.175-6.033,0.595-7.743-.5-0.22-.141.007-0.446,0.225-0.5,2.726-.678,3.287-6.834,3.287-9.2,0-.364-0.09-0.637-0.358-0.637a0.925,0.925,0,0,0-.673.682c-1.031,2.137-3.408,4.956-7,4.956s-6.278-4.183-6.278-8.184,2.153-7.276,5.2-7.276c1.793,0,3.677,1.183,4.842,1.911,0.315,0.181.538-.183,0.225-0.41-1.928-1.41-2.556-3.047-2.556-5.5,0-1.637,1.614-5.092,7.353-5.092S765.518,380.644,765.518,383.555Z" transform="translate(-350 -263)"/>
  <path class="cls-2" d="M608.489,307.112c4.711,3.725,7.135,7.314,6.083,9.13-1.006,1.863-5.4,1.409-11.023-.863-0.823,5.951-2.652,9.9-4.8,9.9s-3.98-3.861-4.849-9.857c-5.579,2.226-9.925,2.68-10.977.817-1.052-1.816,1.372-5.36,6.175-9.13-4.8-3.724-7.272-7.268-6.175-9.039,1.052-1.862,5.4-1.5,10.977.727,0.869-5.906,2.7-9.857,4.849-9.857s3.978,4,4.847,9.857c5.581-2.181,9.971-2.589,11.069-.727C615.67,299.935,613.2,303.433,608.489,307.112Zm-18.8-.454c1.143-.818,2.332-1.726,3.7-2.589a33.134,33.134,0,0,1,.457-4.588c-5.214-2.044-9.284-2.589-10.2-1C582.739,300.026,585.208,303.251,589.692,306.658Zm4.116,8.086a34.939,34.939,0,0,1-.412-4.634,29.089,29.089,0,0,1-3.7-2.544c-4.484,3.5-6.953,6.632-6.039,8.222C584.523,317.378,588.593,316.833,593.808,314.744Zm-0.5-9.812c-1.143.727-2.15,1.5-3.064,2.18,0.96,0.727,2.013,1.454,3.064,2.135-0.046-.635-0.046-1.408-0.046-2.135S593.258,305.659,593.3,304.932Zm0.824-.454a24.931,24.931,0,0,0-.093,2.634,16.458,16.458,0,0,0,.139,2.68c0.731,0.5,1.509.954,2.286,1.408,0.777,0.409,1.555.863,2.288,1.227,0.777-.409,1.555-0.818,2.377-1.272,0.733-.454,1.51-0.863,2.241-1.408,0-.772.093-1.681,0.093-2.635a23.684,23.684,0,0,0-.093-2.634c-0.731-.454-1.418-0.863-2.241-1.363-0.822-.455-1.6-0.863-2.333-1.272q-1.166.546-2.332,1.226C595.636,303.524,594.768,304.069,594.128,304.478Zm3.842-3.089a28.491,28.491,0,0,0-3.431-1.59c-0.183,1.091-.275,2.408-0.365,3.725,0.548-.364,1.235-0.727,1.874-1.136A12.859,12.859,0,0,1,597.97,301.389Zm-3.75,9.312a23.106,23.106,0,0,0,.319,3.725,28.491,28.491,0,0,0,3.431-1.59,12.859,12.859,0,0,1-1.922-1A13.975,13.975,0,0,1,594.22,310.7Zm8.644,4.452a30.527,30.527,0,0,1-4.116-1.954,34.037,34.037,0,0,1-4.163,1.954c0.778,5.632,2.333,9.357,4.163,9.357S602.131,320.876,602.864,315.153Zm-8.234-16.126c1.374,0.591,2.746,1.181,4.162,1.908,1.418-.727,2.837-1.317,4.117-1.863-0.732-5.587-2.287-9.357-4.161-9.357C596.964,289.715,595.409,293.394,594.63,299.027Zm4.118,6.223a1.863,1.863,0,1,1-1.876,1.862A1.848,1.848,0,0,1,598.748,305.25Zm0.777,7.586a28.481,28.481,0,0,0,3.43,1.59,29.094,29.094,0,0,0,.365-3.725,17.911,17.911,0,0,1-1.828,1.136A20.459,20.459,0,0,1,599.525,312.836Zm3.8-9.312a23.157,23.157,0,0,0-.365-3.725c-1.1.5-2.2,1-3.339,1.59a19.079,19.079,0,0,1,1.876,1A15.956,15.956,0,0,1,603.32,303.524Zm0.366-4.043a33.358,33.358,0,0,1,.412,4.543,41.559,41.559,0,0,1,3.75,2.634c4.484-3.407,7.045-6.632,6.129-8.221C613.017,296.8,608.947,297.391,603.686,299.481Zm4.162,8.085a41.362,41.362,0,0,1-3.75,2.635,31.315,31.315,0,0,1-.412,4.452c5.352,2.225,9.377,2.816,10.291,1.226C614.893,314.244,612.422,311.064,607.848,307.566Zm-3.658,1.727c1.052-.727,2.1-1.408,3.064-2.181-0.961-.727-1.921-1.453-3.064-2.18,0.046,0.681.046,1.408,0.046,2.18S604.236,308.612,604.19,309.293Z" transform="translate(-350 -263)"/>
  <circle class="cls-3" cx="248.828" cy="44.328" r="23.453"/>
  <path class="cls-1" d="M538.256,308.5c-5.82,3.169-10.651,5.6-15.662,4.824a11.13,11.13,0,0,1-4.356-1.82c-0.143-.083-0.19.008-0.06,0.1,4.94,3.345,11.073,3.707,26.056-5.077,13.565-7.952,24.426-4.984,28.19,1.332,0.045,0.076.142,0.074,0.08-.032-5.416-9.335-19.572-7.887-28.805-2.4C541.718,306.6,539.91,307.617,538.256,308.5Zm22.209,8.508a10.251,10.251,0,0,1-9.441-2.966c-0.193-.2-0.1-0.282.085-0.079,3.607,3.889,11.411,2.022,13.65.168,4-3.315,1.192-7.024-3.155-7.713-3.024-.48-6.78,1-8.732,1.943-16.18,7.779-20.11,10.189-28.953,8.031-0.219-.065-0.242-0.2.019-0.125,6.805,1.923,13.934-2.027,16.853-3.464,5.08-2.5,10.53-5.518,14.432-6.335a14.021,14.021,0,0,1,8.042.173c2.551,0.911,3.778,2.72,3.733,4.537C566.938,313.578,564.821,316.207,560.465,317.006Z" transform="translate(-350 -263)"/>
  <path id="Shape_9_copy" data-name="Shape 9 copy" class="cls-1" d="M661.285,308.5c5.819,3.169,10.65,5.6,15.661,4.824a11.124,11.124,0,0,0,4.356-1.82c0.143-.083.191,0.008,0.06,0.1-4.94,3.345-11.073,3.707-26.056-5.077-13.564-7.952-24.426-4.984-28.189,1.332-0.046.076-.142,0.074-0.08-0.032,5.415-9.335,19.572-7.887,28.8-2.4C657.823,306.6,659.631,307.617,661.285,308.5Zm-22.209,8.508a10.249,10.249,0,0,0,9.44-2.966c0.194-.2.1-0.282-0.084-0.079-3.608,3.889-11.411,2.022-13.65.168-4-3.315-1.192-7.024,3.154-7.713,3.024-.48,6.781,1,8.732,1.943,16.18,7.779,20.111,10.189,28.953,8.031,0.22-.065.242-0.2-0.019-0.125-6.8,1.923-13.933-2.027-16.853-3.464-5.079-2.5-10.53-5.518-14.431-6.335a14.025,14.025,0,0,0-8.043.173c-2.551.911-3.778,2.72-3.732,4.537C632.6,313.578,634.719,316.207,639.076,317.006Z" transform="translate(-350 -263)"/>
  <path id="Stoutlabs" class="cls-1" d="M479.7,409.827a15.9,15.9,0,0,0,2.448,4.083,10.634,10.634,0,0,0,3.686,2.844,11.228,11.228,0,0,0,4.867,1.036,12.453,12.453,0,0,0,8.553-2.917q3.306-2.916,3.307-8.284a10.085,10.085,0,0,0-.233-2.129q-0.234-1.08-.481-1.9a8.529,8.529,0,0,0-.918-1.911q-0.671-1.094-1.034-1.692a16.667,16.667,0,0,0-1.341-1.765q-0.976-1.166-1.34-1.575t-1.53-1.677q-1.165-1.269-1.457-1.59l-7.373-8.021a21.73,21.73,0,0,1-3.045-4.084,7.993,7.993,0,0,1-1.064-3.909,6.22,6.22,0,0,1,1.967-4.988A7.842,7.842,0,0,1,490,369.66a7.022,7.022,0,0,1,5.523,2.392,11.8,11.8,0,0,1,2.695,6.155l0.058,0.408,3.73-1.166-0.087-.467a14.254,14.254,0,0,0-3.992-8.1A11.194,11.194,0,0,0,490,366.1a11.859,11.859,0,0,0-8.305,2.946,10.136,10.136,0,0,0-3.235,7.876,9.741,9.741,0,0,0,1.37,4.958,28.134,28.134,0,0,0,3.934,5.076l7.839,8.255a42.546,42.546,0,0,1,5.027,6.184,10.252,10.252,0,0,1,1.7,5.571,7.33,7.33,0,0,1-1.865,5.367,7.063,7.063,0,0,1-5.275,1.9,8.085,8.085,0,0,1-3.8-.875,7.15,7.15,0,0,1-2.695-2.406,13.917,13.917,0,0,1-1.618-3.311,18.606,18.606,0,0,1-.83-3.88l-3.9,1.138A21.106,21.106,0,0,0,479.7,409.827ZM517.135,417V370.361h9.849V366.8H502.943v3.559h9.762V417h4.43Zm24.915,0.788q12.793,0,12.793-15.343V381.416a27.984,27.984,0,0,0-.393-4.872,16.458,16.458,0,0,0-1.326-4.185,11.063,11.063,0,0,0-2.361-3.326,10.14,10.14,0,0,0-3.642-2.144,16.728,16.728,0,0,0-10.141,0,10.136,10.136,0,0,0-3.643,2.144,11.043,11.043,0,0,0-2.36,3.326,16.418,16.418,0,0,0-1.326,4.185,27.98,27.98,0,0,0-.394,4.872v21.031Q529.257,417.79,542.05,417.79Zm0-3.559q-8.364,0-8.363-10.792V380.424q0-10.764,8.363-10.764t8.364,10.764v23.015Q550.414,414.232,542.05,414.231Zm19.962-5.469a12.55,12.55,0,0,0,1.253,3.559,9.317,9.317,0,0,0,2.346,2.887,10.828,10.828,0,0,0,3.73,1.882,18.1,18.1,0,0,0,5.289.7q12.5,0,12.5-13.126V366.8h-4.4v38.883q0,4.287-1.865,6.417t-6.236,2.129q-4.633,0-6.586-2.115t-1.952-6.431V366.8h-4.43v37.862A22.165,22.165,0,0,0,562.012,408.762ZM604.3,417V370.361h9.849V366.8H590.1v3.559h9.762V417h4.43Zm31.5,0v-3.558H621.78V366.8h-4.429V417H635.8Zm13.93-45.591L655,400.988H644.51Zm-5.741,32.523h11.569L658.061,417h4.488l-9.908-50.2h-5.77L636.963,417h4.458ZM672.6,370.186h5.77q7.168,0,7.169,9.45a17.037,17.037,0,0,1-.291,3.267,10.641,10.641,0,0,1-.933,2.757,4.825,4.825,0,0,1-1.807,1.983,5.243,5.243,0,0,1-2.8.715H672.6V370.186Zm0,21.585h7.927a6.155,6.155,0,0,1,2.7.554,4.893,4.893,0,0,1,1.836,1.473,7.5,7.5,0,0,1,1.107,2.29,14.526,14.526,0,0,1,.569,2.771,31.061,31.061,0,0,1,.145,3.179q0,1.984-.16,3.588a19.137,19.137,0,0,1-.583,3.151,8.469,8.469,0,0,1-1.122,2.567,5.28,5.28,0,0,1-1.835,1.648,5.4,5.4,0,0,1-2.652.627H672.6V391.771ZM679.829,417a13.64,13.64,0,0,0,4.954-.816,8.842,8.842,0,0,0,3.322-2.13,9.732,9.732,0,0,0,1.967-3.34,18.118,18.118,0,0,0,.991-4.04,38.4,38.4,0,0,0,.248-4.638,18.967,18.967,0,0,0-.321-3.456,18.362,18.362,0,0,0-1.02-3.486,10.186,10.186,0,0,0-2.01-3.165,8.66,8.66,0,0,0-3.089-2.144,8.309,8.309,0,0,0,3.977-4.142,13.821,13.821,0,0,0,1.443-6.1,21.863,21.863,0,0,0-.306-3.763,13.422,13.422,0,0,0-1.107-3.442,9.688,9.688,0,0,0-2.055-2.888,9.19,9.19,0,0,0-3.264-1.925,13.46,13.46,0,0,0-4.6-.729H668.173V417h11.656Zm16.917-7.175a15.9,15.9,0,0,0,2.448,4.083,10.634,10.634,0,0,0,3.686,2.844,11.227,11.227,0,0,0,4.866,1.036,12.452,12.452,0,0,0,8.553-2.917q3.308-2.916,3.308-8.284a10.085,10.085,0,0,0-.233-2.129q-0.234-1.08-.481-1.9a8.529,8.529,0,0,0-.918-1.911q-0.671-1.094-1.035-1.692a16.623,16.623,0,0,0-1.34-1.765q-0.977-1.166-1.341-1.575t-1.529-1.677q-1.167-1.269-1.457-1.59l-7.373-8.021a21.686,21.686,0,0,1-3.045-4.084,7.993,7.993,0,0,1-1.064-3.909,6.22,6.22,0,0,1,1.967-4.988,7.838,7.838,0,0,1,5.289-1.692,7.019,7.019,0,0,1,5.522,2.392,11.791,11.791,0,0,1,2.7,6.155l0.058,0.408,3.73-1.166-0.087-.467a14.248,14.248,0,0,0-3.993-8.1,11.191,11.191,0,0,0-7.926-2.785,11.857,11.857,0,0,0-8.305,2.946,10.133,10.133,0,0,0-3.235,7.876,9.731,9.731,0,0,0,1.37,4.958,28.134,28.134,0,0,0,3.934,5.076l7.839,8.255a42.546,42.546,0,0,1,5.027,6.184,10.251,10.251,0,0,1,1.7,5.571,7.33,7.33,0,0,1-1.865,5.367,7.059,7.059,0,0,1-5.274,1.9,8.083,8.083,0,0,1-3.8-.875,7.161,7.161,0,0,1-2.7-2.406,13.952,13.952,0,0,1-1.617-3.311,18.606,18.606,0,0,1-.83-3.88l-3.905,1.138A21.058,21.058,0,0,0,696.746,409.827Z" transform="translate(-350 -263)"/>
  <path id="_-_Web_Development_Services_-" data-name="- Web Development Services -" class="cls-1" d="M364.742,470.982q-7.221-3.365-14.366-6.946c-0.126.191-.253,0.381-0.379,0.571q7.152,3.588,14.382,6.957Zm35-1.376a36.689,36.689,0,0,0-4.006-1.9c-3.676-1.5-6.954-1.819-9.882-.946a9.845,9.845,0,0,0-6.394,5.871,8.266,8.266,0,0,0-.736,3.619,6.841,6.841,0,0,0,.7,2.981,14.231,14.231,0,0,0,1.725,2.484,5.66,5.66,0,0,0,1.819,1.588q0.21-.342.422-0.684l-0.58-.449c-0.026-.011-0.277-0.239-0.75-0.685a5.771,5.771,0,0,1-.976-1.112,6.96,6.96,0,0,1-.8-7.381,9.066,9.066,0,0,1,5.9-5.471c2.686-.788,5.75-0.461,9.232.956,0.2,0.08,1.649.757,4.363,2a27.882,27.882,0,0,0,3.127,1.512,36.73,36.73,0,0,0-5.855,3.061,30.579,30.579,0,0,0-4.009,2.874,27.6,27.6,0,0,0-3.723,3.979,21.68,21.68,0,0,0-3.041,5.192,7.768,7.768,0,0,0-.343,5.355,6.287,6.287,0,0,0,4.065,3.892,13.881,13.881,0,0,0,10.68-.3q0.065,0.428.271,1.313a6.689,6.689,0,0,0,4.7,4.915c5.111,1.849,10.3.028,15.394-5.442a32.14,32.14,0,0,0,6.934-11.642c1.476-4.479,1.559-7.928.284-10.353l-0.745.348c1.155,2.2,1.049,5.4-.347,9.617a30.67,30.67,0,0,1-6.841,11.43c-4.133,4.4-7.76,6.062-10.77,4.992a5.843,5.843,0,0,1-4-7.52,37.735,37.735,0,0,0,8.753-7.169,23.415,23.415,0,0,0,4.93-7.322,3.037,3.037,0,0,0,.14-2.277,2.521,2.521,0,0,0-1.515-1.18c-1.559-.556-3.383-0.211-5.494,1.029a22.272,22.272,0,0,0-6.064,5.517,27.419,27.419,0,0,0-4.259,7.248,17.48,17.48,0,0,0-1.367,5.528q-1.417.558-2.254,0.8a9.418,9.418,0,0,1-2.211.31,6.436,6.436,0,0,1-2.634-.431,4.751,4.751,0,0,1-2.721-2.695q-0.832-1.958.531-5.365a35.523,35.523,0,0,1,5.825-9.813q3.6-4.27,6.773-5.473a12.39,12.39,0,0,0,5.921.593q-0.088-.4-0.175-0.792a13.917,13.917,0,0,1-6.734-1.037A26.413,26.413,0,0,1,399.744,469.606Zm12.5,10.268a11.843,11.843,0,0,1,4.007-3.5,3.473,3.473,0,0,1,1.348.161q1.434,0.512.781,2.365a20.631,20.631,0,0,1-4.017,6.239,37.237,37.237,0,0,1-6.921,6.226q-0.96.7-1.533,1.048l0.2-.532q3.079-8.378,6.139-12.01h0Zm18.637,12.163a9.935,9.935,0,0,0-4.469,5.969,4.925,4.925,0,0,0,.409,4.327,7.64,7.64,0,0,0,4.42,2.93,9.025,9.025,0,0,0,3.265.435,7.3,7.3,0,0,0,2.453-.5,6.987,6.987,0,0,0,1.782-1.183,5.406,5.406,0,0,0,1.171-1.328l-0.625-.5a4.553,4.553,0,0,1-1.247,1.285,8.562,8.562,0,0,1-1.406.939,5.242,5.242,0,0,1-1.922.542,5.84,5.84,0,0,1-2.378-.258,2.963,2.963,0,0,1-1.8-1.415,3.327,3.327,0,0,1-.055-2.655q0.24-.757.728-2.031a15.725,15.725,0,0,0,7.035.85,3.866,3.866,0,0,0,3.369-2.761c0.723-2.444-.56-4.146-3.838-5.153a8.506,8.506,0,0,0-6.891.51h0Zm9.752,4.351c-0.754,2.534-3.778,3.045-9.048,1.411a10.091,10.091,0,0,1,3.433-4.314,4.149,4.149,0,0,1,3.427-.762,3.166,3.166,0,0,1,2.019,1.462,2.841,2.841,0,0,1,.169,2.2h0Zm14.521,13.122a9.229,9.229,0,0,0,4.325-6.118,5.405,5.405,0,0,0-.408-4.231,5.7,5.7,0,0,0-3.653-2.485,5.161,5.161,0,0,0-4.944,1.305q2.174-4.3,3.685-7.376a9.72,9.72,0,0,0,.339-0.927,3.1,3.1,0,0,0-.3-2.636,4.157,4.157,0,0,0-2.464-1.6,3.852,3.852,0,0,0-3.264.478l0.448,0.6a2.889,2.889,0,0,1,2.207-.468q-5.536,11.3-11.266,22.53l0.76,0.223q2-.6,3.983-1.21a4.456,4.456,0,0,0,3.246,2.567,9.354,9.354,0,0,0,7.31-.657h0Zm-9.423-2.256q1.168-2.3,3.5-6.794l0.079,0.022a5.778,5.778,0,0,1,.783-0.978,8.945,8.945,0,0,1,2.081-1.639,3.015,3.015,0,0,1,2.315-.541,1.5,1.5,0,0,1,1.181.988,5.1,5.1,0,0,1-.247,2.4,16.162,16.162,0,0,1-3.245,6.587c-1.421,1.612-2.873,2.215-4.338,1.805a2.665,2.665,0,0,1-2.107-1.851h0Zm55.411,12.664a13.411,13.411,0,0,0,5.594-8.858,10,10,0,0,0-2.528-8.942c-2.269-2.439-5.65-4.073-10.176-4.969a34.913,34.913,0,0,0-11.88-.594,15.443,15.443,0,0,0-6.611-4.807l-0.319.664a14.82,14.82,0,0,1,6.125,4.274,12.981,12.981,0,0,0-6.254,2.941,9.707,9.707,0,0,0-3,4.99,4.577,4.577,0,0,0,.522,3.483,4.9,4.9,0,0,0,3.359,2.19,6.042,6.042,0,0,0,4.823-1.078,7.664,7.664,0,0,0,3.14-5.029,8.97,8.97,0,0,0-1.289-6.937,26.27,26.27,0,0,1,7.489.006q-3.685,9.168-7.494,18.3a15.263,15.263,0,0,1-1.615,3.021,12.463,12.463,0,0,1-2.979-2.757,11.44,11.44,0,0,1-1.534-2.415,3.153,3.153,0,0,1-.3-1l-0.78.1a3.614,3.614,0,0,0,.325,1.082,11.622,11.622,0,0,0,1.64,2.6,13.775,13.775,0,0,0,3.212,2.966,3.016,3.016,0,0,1-1.562,1.23,5.923,5.923,0,0,1-2.382-.115c-0.052.234-.1,0.468-0.155,0.7a10.878,10.878,0,0,0,6.371-.522,23.537,23.537,0,0,0,5.639,1.771,18.35,18.35,0,0,0,6.879.056,13.288,13.288,0,0,0,5.737-2.341h0Zm-17.375.157a9.56,9.56,0,0,0,4.712-4.9c1.472-3.432,3.68-9.112,6.556-17.054,3.963,0.981,6.9,2.565,8.828,4.8a9.556,9.556,0,0,1,2.073,8.252,12.562,12.562,0,0,1-5.282,8.2,12.841,12.841,0,0,1-5.48,2.209,19.227,19.227,0,0,1-7.187-.179,20.875,20.875,0,0,1-4.22-1.326h0Zm-8.037-19.989a12.5,12.5,0,0,1,6.078-2.716,8.126,8.126,0,0,1,1.424,6.467c-0.069.321-.152,0.639-0.246,0.953a7.175,7.175,0,0,1-2.765,3.928,5,5,0,0,1-4.064.876,4.119,4.119,0,0,1-2.88-1.884,3.946,3.946,0,0,1-.428-2.916A8.933,8.933,0,0,1,475.73,500.086Zm35.6,11.215a9.99,9.99,0,0,0-3.5,6.576,4.942,4.942,0,0,0,1.038,4.214,7.525,7.525,0,0,0,4.768,2.227,8.888,8.888,0,0,0,3.266-.064,7.228,7.228,0,0,0,2.334-.865,6.946,6.946,0,0,0,1.574-1.438,5.41,5.41,0,0,0,.954-1.49l-0.688-.4a4.558,4.558,0,0,1-1.034,1.458,8.632,8.632,0,0,1-1.242,1.141,5.182,5.182,0,0,1-1.8.826,5.759,5.759,0,0,1-2.371.1,2.919,2.919,0,0,1-1.976-1.126,3.342,3.342,0,0,1-.445-2.615q0.123-.784.415-2.118a15.485,15.485,0,0,0,7.027-.224,3.868,3.868,0,0,0,2.9-3.237c0.349-2.525-1.162-4.014-4.526-4.514A8.407,8.407,0,0,0,511.327,511.3Zm10.209,2.826c-0.366,2.618-3.26,3.579-8.67,2.762a10.156,10.156,0,0,1,2.732-4.783,4.112,4.112,0,0,1,3.251-1.272,3.125,3.125,0,0,1,2.2,1.141,2.851,2.851,0,0,1,.491,2.152h0Zm15.649,3.661a2.727,2.727,0,0,0,2.263-.74,5.763,5.763,0,0,1,0,.8,9.439,9.439,0,0,1-2.9,5.883,6.394,6.394,0,0,1-5.3,2.162,2.141,2.141,0,0,1-1.614-.884,2.73,2.73,0,0,1-.36-1.931,18.356,18.356,0,0,1,1.32-3.991,18.1,18.1,0,0,0,1.334-4.2,3.142,3.142,0,0,0-.619-2.4,3.247,3.247,0,0,0-2.261-1.2,5.235,5.235,0,0,0-2.52.2,4.573,4.573,0,0,0-1.328.662,3.6,3.6,0,0,0-.43.476l0.539,0.531,0.33-.337a3.479,3.479,0,0,1,.981-0.651,2.53,2.53,0,0,1,1.294-.269,23.984,23.984,0,0,1-1.4,4.3,20.037,20.037,0,0,0-1.385,4.72,4.569,4.569,0,0,0,1.194,3.668,5.94,5.94,0,0,0,3.962,2.026,8.66,8.66,0,0,0,4.464-.518,7.347,7.347,0,0,0,3.092-2.317,14,14,0,0,0,1.763-2.986,11.805,11.805,0,0,0,.827-3.355,6.666,6.666,0,0,0-.18-2.891c0-.013,0-0.025,0-0.038a0.1,0.1,0,0,0-.032-0.079,2.881,2.881,0,0,0-.92-1.413,3.133,3.133,0,0,0-1.741-.706,2.689,2.689,0,0,0-1.989.591,2.617,2.617,0,0,0-1.067,1.837,2.537,2.537,0,0,0,.62,2.014A3.034,3.034,0,0,0,537.185,517.788Zm7.689-2.138a10.008,10.008,0,0,0-3.089,6.78,4.948,4.948,0,0,0,1.292,4.142,7.509,7.509,0,0,0,4.886,1.928,8.865,8.865,0,0,0,3.251-.265,7.224,7.224,0,0,0,2.273-1.008,6.956,6.956,0,0,0,1.481-1.532,5.386,5.386,0,0,0,.859-1.546l-0.71-.358a4.56,4.56,0,0,1-.941,1.519,8.642,8.642,0,0,1-1.168,1.214,5.179,5.179,0,0,1-1.748.936,5.744,5.744,0,0,1-2.357.251,2.917,2.917,0,0,1-2.037-1,3.345,3.345,0,0,1-.6-2.583q0.073-.792.283-2.139a15.469,15.469,0,0,0,6.989-.657,3.87,3.87,0,0,0,2.692-3.41c0.194-2.541-1.4-3.934-4.786-4.226a8.383,8.383,0,0,0-6.567,1.956h0Zm10.345,2.191c-0.2,2.636-3.029,3.773-8.469,3.291a10.163,10.163,0,0,1,2.429-4.942,4.1,4.1,0,0,1,3.162-1.47,3.121,3.121,0,0,1,2.258,1,2.851,2.851,0,0,1,.62,2.118h0Zm11.134,8.67a7.435,7.435,0,0,0,.721-1.494l-0.717-.344q-0.256.553-.515,1.107a6.948,6.948,0,0,1-1.524,2.106,2.851,2.851,0,0,1-2.2.959q1.794-6.63,3.612-14.384c1.208-5.169,1.826-8.083,1.892-8.736a1.9,1.9,0,0,1,1.541,1.072,4.163,4.163,0,0,1,.526,2.377,15.433,15.433,0,0,1-2,5.856,15.581,15.581,0,0,0-2.025,5.623l0.728,0.043a16.406,16.406,0,0,1,2.033-5.529,16.1,16.1,0,0,0,2.014-5.839,4.5,4.5,0,0,0-.765-3.147,3.044,3.044,0,0,0-2.285-1.152A4,4,0,0,0,564,506.412a12.962,12.962,0,0,0-2.315,5.192q-1.758,6.7-3.58,13.4a9.564,9.564,0,0,0-.153.975,3.036,3.036,0,0,0,.847,2.526,3.742,3.742,0,0,0,2.448,1.042,4.8,4.8,0,0,0,2.44-.373,5.233,5.233,0,0,0,1.529-1.081A8.947,8.947,0,0,0,566.353,526.511Zm9.131,3.805c3.131,0.13,5.56-.678,7.264-2.395a9.706,9.706,0,0,0,2.649-6.893A5.1,5.1,0,0,0,583.865,517a6.648,6.648,0,0,0-4.491-1.6,12.707,12.707,0,0,0-4.887.638,6.451,6.451,0,0,0-3.023,2.149,10.434,10.434,0,0,0-1.548,2.952,14.646,14.646,0,0,0-.625,3.755,4.673,4.673,0,0,0,1.448,3.749,6.976,6.976,0,0,0,4.745,1.674h0Zm0.211-11.444c1.09-1.885,2.235-2.8,3.453-2.761s1.791,1.12,1.723,3.238a16.179,16.179,0,0,1-1.728,7.189c-1.067,2-2.245,2.966-3.52,2.913s-1.868-1.089-1.777-3.105A16.375,16.375,0,0,1,575.7,518.872ZM602.25,528.2a9.275,9.275,0,0,0,2.549-7.039,5.435,5.435,0,0,0-1.492-3.977,5.685,5.685,0,0,0-4.183-1.437,5.251,5.251,0,0,0-4.514,2.821,3.011,3.011,0,0,0-1.066-2.3,4.344,4.344,0,0,0-2.779-.847,3.854,3.854,0,0,0-3.013,1.309l0.594,0.466a2.926,2.926,0,0,1,2.027-1.025q-2.039,9.882-4.213,19.746,2.475,0.055,4.95.089,0.664-3.038,1.316-6.075a5.036,5.036,0,0,0,3,.821A9.246,9.246,0,0,0,602.25,528.2Zm-7.982-7.176h0.04a5.784,5.784,0,0,1,.5-1.15,8.923,8.923,0,0,1,1.565-2.128,2.974,2.974,0,0,1,2.074-1.13,1.48,1.48,0,0,1,1.387.642,5.142,5.142,0,0,1,.388,2.382,16.462,16.462,0,0,1-1.433,7.227c-0.969,2.018-2.113,3.024-3.415,3.016a2.655,2.655,0,0,1-2.639-1.46Q593.509,524.723,594.268,521.02Zm28.959,3.415c0.96-5.444,2.377-8.211,4.3-8.312a1.451,1.451,0,0,1,1.736,1.535,27.42,27.42,0,0,1-.483,4.5,27.106,27.106,0,0,0-.482,4.761c0.108,2.064,1.411,3.035,3.909,2.887a5.527,5.527,0,0,0,2.155-.549,2.486,2.486,0,0,0,1.213-1.026l-0.645-.413A3.018,3.018,0,0,1,632.946,529a31.809,31.809,0,0,1,.551-5.056,24.81,24.81,0,0,0,.486-4.56,4.623,4.623,0,0,0-1.548-3.409,4.947,4.947,0,0,0-3.6-1.06,4.635,4.635,0,0,0-3.31,1.328,8.8,8.8,0,0,0-1.781,3.321,4.48,4.48,0,0,0-1.572-3.168,5.229,5.229,0,0,0-3.6-1.013c-2.111.077-3.65,1.269-4.636,3.592l0-.113a3.089,3.089,0,0,0-1.072-2.431,4.216,4.216,0,0,0-2.849-.805,3.9,3.9,0,0,0-3.008,1.416l0.61,0.444a2.934,2.934,0,0,1,1.991-1.095q-1.186,7-2.442,14,2.472-.037,4.942-0.1,0.651-3.8,1.283-7.6c1.032-4.038,2.36-6.082,4.02-6.138a1.45,1.45,0,0,1,1.707,1.567,27.446,27.446,0,0,1-.566,4.487,27.177,27.177,0,0,0-.569,4.751c0.069,2.066,1.354,3.061,3.855,2.959a5.524,5.524,0,0,0,2.164-.51,2.474,2.474,0,0,0,1.23-1l-0.637-.425a3.013,3.013,0,0,1-2.007,1.149,34.032,34.032,0,0,1,.641-5.1h0Zm15.844-7.618a10.01,10.01,0,0,0-1.887,7.208,4.949,4.949,0,0,0,1.977,3.861,7.5,7.5,0,0,0,5.142,1.066,8.867,8.867,0,0,0,3.158-.816,7.251,7.251,0,0,0,2.068-1.38,6.963,6.963,0,0,0,1.2-1.763,5.382,5.382,0,0,0,.584-1.67l-0.761-.232a4.594,4.594,0,0,1-.668,1.657,8.643,8.643,0,0,1-.945,1.4,5.179,5.179,0,0,1-1.563,1.221,5.746,5.746,0,0,1-2.28.649,2.912,2.912,0,0,1-2.177-.64,3.348,3.348,0,0,1-1.035-2.442q-0.06-.792-0.085-2.156a15.459,15.459,0,0,0,6.774-1.84,3.869,3.869,0,0,0,2.072-3.819c-0.242-2.537-2.054-3.637-5.437-3.348A8.379,8.379,0,0,0,639.071,516.817Zm10.566,0.394c0.248,2.632-2.344,4.235-7.785,4.688a10.165,10.165,0,0,1,1.551-5.284,4.1,4.1,0,0,1,2.864-1.988,3.119,3.119,0,0,1,2.4.6,2.854,2.854,0,0,1,.973,1.981h0Zm20.273,3.254a24.67,24.67,0,0,0,.187-4.583,4.618,4.618,0,0,0-1.77-3.3,5.185,5.185,0,0,0-3.828-.8,5.468,5.468,0,0,0-4.715,4.127c-0.008-.075-0.016-0.15-0.025-0.225a3.081,3.081,0,0,0-1.271-2.333,4.222,4.222,0,0,0-2.91-.564,3.908,3.908,0,0,0-2.883,1.661q0.322,0.2.646,0.392a2.932,2.932,0,0,1,1.895-1.257q-0.3,3.549-.617,7.1c-0.189,2.452-.27,3.854-0.235,4.2a2.8,2.8,0,0,0,1.271,2.153,4.4,4.4,0,0,0,2.981.564,3.974,3.974,0,0,0,2.924-1.692l-0.664-.382a3.022,3.022,0,0,1-1.972,1.282q0.318-3.592.619-7.183a13.756,13.756,0,0,1,1.537-4.664,3.377,3.377,0,0,1,2.355-1.912,1.452,1.452,0,0,1,1.836,1.418,27.384,27.384,0,0,1-.189,4.519,27.162,27.162,0,0,0-.169,4.782c0.243,2.053,1.608,2.936,4.1,2.624a5.563,5.563,0,0,0,2.117-.69,2.488,2.488,0,0,0,1.145-1.1l-0.672-.37a3.029,3.029,0,0,1-1.907,1.315A31.681,31.681,0,0,1,669.91,520.465Zm2.924-9.413,0.012,0.686q0.978-.133,1.955-0.27a86.926,86.926,0,0,0-.249,10.364,3.3,3.3,0,0,0,1.686,2.593,5.259,5.259,0,0,0,3.41.527c3.163-.46,4.948-2.757,5.326-6.849l-0.762-.111a10.616,10.616,0,0,1-1.086,3.727,3.189,3.189,0,0,1-2.284,1.988,1.16,1.16,0,0,1-1.561-1c-0.194-1.323-.069-5.3.3-11.936q2.49-.371,4.978-0.765l-0.027-.685q-2.464.39-4.932,0.759,0.192-3.355.345-6.058l-0.5.19a28.994,28.994,0,0,1-4.3.859q-0.138,2.847-.288,5.695Q673.851,510.914,672.834,511.052Zm31.122,16.481a8.658,8.658,0,0,1-2.968-.987,5.15,5.15,0,0,1-2.96-3.751,6.006,6.006,0,0,1,4.91-7,5.578,5.578,0,0,1,3.957.351,2.813,2.813,0,0,1,1.494,2.036,3.745,3.745,0,0,1-.406,2.626,3.011,3.011,0,0,1-2.175,1.524,3.087,3.087,0,0,1-2.411-.348,2.712,2.712,0,0,1-1.3-1.988l-0.778.107a1.1,1.1,0,0,0,.083.446,3.366,3.366,0,0,0,1.515,2.026,3.94,3.94,0,0,0,3.053.5,3.716,3.716,0,0,0,2.66-1.871,4.492,4.492,0,0,0,.524-3.19,3.688,3.688,0,0,0-1.938-2.564,7.061,7.061,0,0,0-9.957,7.529,5.73,5.73,0,0,0,3.289,4.193c2.16,1.144,5.115,1.367,8.835.632a15.2,15.2,0,0,0,8.647-4.527,8.208,8.208,0,0,0,2.1-7.622,6.171,6.171,0,0,0-2.349-3.685,21.173,21.173,0,0,0-5.167-2.663,36.862,36.862,0,0,1-4.254-1.823,13.086,13.086,0,0,0,4.359-3.071,5.182,5.182,0,0,0,2.647.012,6.051,6.051,0,0,0,4.08-2.669,5.6,5.6,0,0,0,.738-4.358,5.166,5.166,0,0,0-2.673-3.484,8.54,8.54,0,0,0-5.972-.582,14.472,14.472,0,0,0-8.392,4.857,9.927,9.927,0,0,0-2.213,8.6,7.324,7.324,0,0,0,.319,1.248,5.712,5.712,0,0,1-4.6-2.914,7.074,7.074,0,0,1-.82-2.273,9.324,9.324,0,0,1-.075-2.64,7.313,7.313,0,0,1,1.921-4.433l-0.538-.515a8.312,8.312,0,0,0-2.128,4.853,9.992,9.992,0,0,0,.073,2.87,7.721,7.721,0,0,0,.9,2.49,6.6,6.6,0,0,0,5.535,3.32,7,7,0,0,0,2.407,2.851,13.589,13.589,0,0,0,3.4,1.76q1.769,0.612,3.491,1.243a9.059,9.059,0,0,1,3.053,1.858,5.736,5.736,0,0,1,1.735,3.113,4.943,4.943,0,0,1-1.5,4.721,12.047,12.047,0,0,1-6.389,2.945A12.26,12.26,0,0,1,703.956,527.533Zm8.129-23.417a14.456,14.456,0,0,1-4.493,3.014,4.883,4.883,0,0,1-3.007-3.95,7.12,7.12,0,0,1,2.212-6.619,9.691,9.691,0,0,1,4.975-2.551,7.7,7.7,0,0,1,5.355.526,4.561,4.561,0,0,1,2.328,3.06,4.974,4.974,0,0,1-.655,3.833,5.273,5.273,0,0,1-3.567,2.359,4.649,4.649,0,0,1-1.894.022c1.577-2.014,2.153-3.932,1.756-5.741s-1.464-2.524-3.2-2.151a3,3,0,0,0-2.166,1.581,4.233,4.233,0,0,0-.316,2.886,5.164,5.164,0,0,0,2.67,3.731h0Zm2.225-5.895a5.25,5.25,0,0,1-.213,2.8,6.4,6.4,0,0,1-1.515,2.53,4.436,4.436,0,0,1-2.383-3.324,3.738,3.738,0,0,1,.171-2.394,2.193,2.193,0,0,1,1.63-1.236q1.868-.4,2.31,1.629h0Zm10.2,5.5a9.982,9.982,0,0,0-.749,7.418,4.937,4.937,0,0,0,2.567,3.5,7.571,7.571,0,0,0,5.273.24,8.977,8.977,0,0,0,3.01-1.306,7.3,7.3,0,0,0,1.839-1.691,6.932,6.932,0,0,0,.916-1.931,5.384,5.384,0,0,0,.32-1.742l-0.793-.109a4.582,4.582,0,0,1-.405,1.743,8.67,8.67,0,0,1-.721,1.529,5.2,5.2,0,0,1-1.363,1.453,5.8,5.8,0,0,1-2.163,1,2.939,2.939,0,0,1-2.263-.287,3.334,3.334,0,0,1-1.409-2.249q-0.184-.772-0.421-2.116a15.633,15.633,0,0,0,6.443-2.89,3.873,3.873,0,0,0,1.463-4.1c-0.637-2.467-2.609-3.267-5.925-2.445A8.457,8.457,0,0,0,724.509,503.725Zm10.558-1.283c0.658,2.56-1.669,4.555-7,5.863a10.118,10.118,0,0,1,.716-5.465,4.136,4.136,0,0,1,2.535-2.417,3.149,3.149,0,0,1,2.476.216,2.843,2.843,0,0,1,1.275,1.8h0Zm3.43-2.96a2.954,2.954,0,0,1,1.687-1.543q0.507,7.087.948,14.187,2.409-.631,4.814-1.284-0.264-3.829-.546-7.654c0-.012-0.006-0.024-0.01-0.036a17.093,17.093,0,0,1,.565-3.491,7.227,7.227,0,0,1,1.077-2.578,3.285,3.285,0,0,1,1.794-1.411,2.433,2.433,0,0,1,1.69.008,2.288,2.288,0,0,1,1.019,1.556c0.241,0.836.022,2.18-.672,4.03a7.3,7.3,0,0,0-.67,4.122q0.477-.133.953-0.27a4.066,4.066,0,0,1,.255-2.413q0.522-1.465,1-3.061a4.931,4.931,0,0,0,.125-2.794c-0.564-1.937-1.843-2.613-3.84-2.043-1.868.532-3.066,2.1-3.615,4.706-0.02-.073-0.041-0.146-0.061-0.219a3.074,3.074,0,0,0-1.628-2.1,4.277,4.277,0,0,0-2.982-.094,3.947,3.947,0,0,0-2.606,2.1l0.7,0.285h0Zm27.89-4.286a2.77,2.77,0,0,0,1.787-1.605,5.746,5.746,0,0,1,.321.731,9.394,9.394,0,0,1-.278,6.564,6.487,6.487,0,0,1-4.008,4.15,2.175,2.175,0,0,1-1.848-.145,2.725,2.725,0,0,1-1.119-1.617,18.184,18.184,0,0,1-.411-4.185,17.844,17.844,0,0,0-.484-4.381,3.122,3.122,0,0,0-1.549-1.939,3.29,3.29,0,0,0-2.573-.169,5.3,5.3,0,0,0-2.237,1.22,4.58,4.58,0,0,0-.953,1.147,3.586,3.586,0,0,0-.2.611l0.712,0.265,0.167-.444a3.542,3.542,0,0,1,.638-1,2.561,2.561,0,0,1,1.082-.776,23.838,23.838,0,0,1,.465,4.5,19.964,19.964,0,0,0,.649,4.877,4.545,4.545,0,0,0,2.595,2.859,6.007,6.007,0,0,0,4.477.226,8.818,8.818,0,0,0,3.9-2.3,7.4,7.4,0,0,0,1.908-3.385,13.973,13.973,0,0,0,.408-3.451,11.665,11.665,0,0,0-.605-3.4,6.628,6.628,0,0,0-1.345-2.566l-0.012-.036a0.109,0.109,0,0,0-.062-0.059,2.892,2.892,0,0,0-1.425-.912,3.2,3.2,0,0,0-1.895.07A2.731,2.731,0,0,0,762.9,491.4a2.6,2.6,0,0,0-.235,2.114,2.524,2.524,0,0,0,1.394,1.585A3.078,3.078,0,0,0,766.387,495.2Zm14.753,3.761-0.738-.226a3.04,3.04,0,0,1-1.631,1.674q-0.925-7.234-1.923-14.451l-0.5.292a29.451,29.451,0,0,1-4.123,1.636l-1.659.551c0.046,0.224.091,0.448,0.137,0.672q0.81-.269,1.621-0.539,0.433,3.425.85,6.853,0.513,3.654.664,4.123a2.784,2.784,0,0,0,1.718,1.822,4.478,4.478,0,0,0,3.063-.109,4.045,4.045,0,0,0,2.522-2.3h0Zm-6.782-15.149a2.962,2.962,0,0,0,1.711-1.427,2.513,2.513,0,0,0,.189-2.106,2.587,2.587,0,0,0-1.452-1.559,2.908,2.908,0,0,0-2.214-.1,2.844,2.844,0,0,0-1.674,1.425,2.628,2.628,0,0,0-.18,2.115,2.537,2.537,0,0,0,1.415,1.56A2.884,2.884,0,0,0,774.358,483.808Zm18.317,4.545a3.191,3.191,0,0,0,1.7-1.406,2.516,2.516,0,0,0,.094-2.259,4.418,4.418,0,0,0-2.646-2.72,6.423,6.423,0,0,0-4.512.264,8.789,8.789,0,0,0-5.333,4.636,9.881,9.881,0,0,0,.025,7.468,4.913,4.913,0,0,0,2.943,3.2,7.666,7.666,0,0,0,5.3-.349,9.1,9.1,0,0,0,2.875-1.635,7.354,7.354,0,0,0,1.661-1.887,6.961,6.961,0,0,0,.711-2.024,5.366,5.366,0,0,0,.134-1.769l-0.8-.019a4.562,4.562,0,0,1-.22,1.779,8.66,8.66,0,0,1-.559,1.6,5.271,5.271,0,0,1-1.209,1.6,5.932,5.932,0,0,1-2.059,1.238,2.977,2.977,0,0,1-2.3-.034,3.313,3.313,0,0,1-1.65-2.08q-1.655-4.63-.954-7.536t2.677-3.635a3.088,3.088,0,0,1,3.179.229,3.876,3.876,0,0,0-.934.188,2.944,2.944,0,0,0-1.674,1.489,2.6,2.6,0,0,0-.136,2.126,2.512,2.512,0,0,0,1.476,1.512A2.934,2.934,0,0,0,792.675,488.353Zm4.82-7.237a9.917,9.917,0,0,0,.262,7.459,4.909,4.909,0,0,0,3.042,3.105,7.7,7.7,0,0,0,5.305-.513,9.161,9.161,0,0,0,2.832-1.725,7.392,7.392,0,0,0,1.61-1.939,7,7,0,0,0,.653-2.046,5.376,5.376,0,0,0,.083-1.772l-0.808,0a4.549,4.549,0,0,1-.169,1.786,8.626,8.626,0,0,1-.512,1.619,5.3,5.3,0,0,1-1.166,1.636,5.941,5.941,0,0,1-2.026,1.3,2.992,2.992,0,0,1-2.3.038,3.31,3.31,0,0,1-1.715-2.029q-0.289-.739-0.709-2.037a15.951,15.951,0,0,0,6.049-3.785,3.87,3.87,0,0,0,.9-4.274c-0.972-2.356-3.054-2.866-6.259-1.577a8.594,8.594,0,0,0-5.075,4.747h0Zm10.383-2.779c1.006,2.444-1.05,4.755-6.205,6.812a10.073,10.073,0,0,1-.028-5.519,4.19,4.19,0,0,1,2.207-2.758,3.2,3.2,0,0,1,2.5-.14,2.825,2.825,0,0,1,1.521,1.6h0Zm7.4,6.715a4.482,4.482,0,0,0,1.1-.3,2.766,2.766,0,0,0,1.578-1.532,2.644,2.644,0,0,0-.033-2.1,2.45,2.45,0,0,0-1.488-1.422,2.952,2.952,0,0,0-2.179.123,3.34,3.34,0,0,0-1.7,1.515,2.944,2.944,0,0,0,.083,2.587,3.723,3.723,0,0,0,2.626,2.122,7.43,7.43,0,0,0,4.888-.674,8.326,8.326,0,0,0,4.244-3.781,5.448,5.448,0,0,0,.243-4.987,7.829,7.829,0,0,0-1.765-2.548,9.074,9.074,0,0,0-2.073-1.524A8.734,8.734,0,0,1,818.74,471,7.818,7.818,0,0,1,817,468.438l-0.9.391c-0.032.165-.065,0.33-0.1,0.5a5.284,5.284,0,0,0-.015,1.408,5.663,5.663,0,0,0,.441,1.746l0.06,0.139a11.049,11.049,0,0,1-3.9,5.033l0.351,0.837a10.286,10.286,0,0,0,4.074-4.861q0.255,0.384,1.388,1.913a14.431,14.431,0,0,1,1.676,2.777c1.467,3.376.929,5.622-1.622,6.708a3.43,3.43,0,0,1-3.173.027h0Zm34.476-22.333q-7.13,3.623-14.338,7.026,0.108,0.325.215,0.651,7.216-3.406,14.357-7.032Z" transform="translate(-350 -263)"/>
  <path id="_-_Kingsport_TN_-" data-name="- Kingsport, TN -" class="cls-1" d="M504.435,307.641q3.031-2.984,6.2-5.738l-1.072-1.238q-3.206,2.788-6.276,5.807,0.575,0.584,1.148,1.169h0Zm13.8-6.678q3.173-2.5,6.459-4.784-1.179-.228-2.371-0.435l-0.741-1.043q0.287-.74.581-1.479,1.853,0.5,3.67,1.047-0.024.579-.044,1.158,2.949-2,5.98-3.832-1.367-.18-2.75-0.329-2.661-.807-5.4-1.5,1.406-3.216,3-6.4-3.063,1.853-6.051,3.873,1.018,0.35,2.026.714-1.167,2.522-2.22,5.061l-1.69-2.379q0.093-1.119.2-2.241-3.381,2.361-6.654,4.941,1.476-.073,2.94-0.111l3.792,5Q518.581,299.591,518.23,300.963ZM533.4,290.628q2.532-1.478,5.115-2.834-1.2-.342-2.414-0.661l-3.8-7.029q-2.755,1.5-5.458,3.123,1.279,0.234,2.543.492Q531.388,287.174,533.4,290.628Zm5.819-3.2q2.917-1.509,5.891-2.863-1.416-.3-2.854-0.567l-1.892-3.975q4.941,1.034,9.634,2.435,0.972-.4,1.948-0.775l-2.895-7.45q0.645-1.173,1.316-2.341-3.108,1.156-6.171,2.462,1.4,0.336,2.79.7,0.594,1.461,1.189,2.924-3.9-1.044-7.97-1.849-2.882,1.336-5.714,2.81,1.581,0.253,3.14.545l2.7,5.449Q539.757,286.178,539.215,287.427Zm13.691-11.1c1.3,3.466,5.069,3.376,9.016,2.2a9.636,9.636,0,0,0,3.965-2.094c0.194,0.183.387,0.365,0.579,0.549q0.878-.229,1.756-0.444l-1.236-5.025q-3.1.759-6.16,1.665,1.379,0.582,2.732,1.19l0.453,1.632a4.4,4.4,0,0,1-1.886.94,3.674,3.674,0,0,1-4.819-2.356,3.366,3.366,0,0,1,2.461-4.582,5.112,5.112,0,0,1,4.851.84q0.984-.258,1.972-0.5l-0.792-3.209q-0.891.219-1.781,0.451-0.218.4-.433,0.8a11.545,11.545,0,0,0-4.79.4C554.674,270.019,551.664,273.022,552.906,276.332Zm18.117-.345q0.733-.164,1.468-0.318,0.526-.457,1.06-0.91a11.534,11.534,0,0,0,4.333.061c3-.506,5.469-1.748,5.206-3.975-0.3-2.492-2.768-2.766-6.035-2.677s-3.918-.05-4.034-0.651c-0.081-.411.643-0.9,1.929-1.131a14.244,14.244,0,0,1,6.889.7q-0.21-1.613-.419-3.224-0.557.072-1.112,0.149-0.745.471-1.481,0.951a15.043,15.043,0,0,0-4.394.073c-3.607.657-5.52,2.339-5.079,4.247,0.458,2.017,2.433,2.434,6.321,2.163,2.913-.184,3.555.3,3.636,0.815,0.087,0.575-.77.912-1.74,1.076a16.1,16.1,0,0,1-7.29-.673q0.371,1.662.742,3.325h0Zm13.432-2.366q4.717-.549,9.46-0.759-1.6-.791-3.234-1.541-0.054-.8-0.109-1.6c0.53-.016,1.051-0.041,1.44-0.063,4.379-.247,7.314-0.714,7.319-3.6,0.008-2.666-3.684-3.08-6.989-2.895-1.329.051-5.9,0.393-9.006,0.805q1.357,0.708,2.685,1.442,0.309,3.121.616,6.241Q585.53,272.63,584.455,273.621Zm6.016-5.375-0.237-3.486q0.588-.04,1.177-0.075c2.081-.122,3.333.054,3.383,1.52s-0.732,1.827-3.332,1.978q-0.5.03-.991,0.063h0Zm10.126-.366c0.008,3.808,3.762,5.139,7.106,5.355,3.351,0.186,7.267-.812,7.719-4.464,0.459-3.727-3.291-5.534-7.1-5.751C604.843,262.794,600.587,264.12,600.6,267.88Zm4.629,0.105c0.077-2.117,1.333-3.747,3.014-3.646,1.761,0.106,2.747,1.871,2.569,3.982-0.175,2.08-1.447,3.623-3.022,3.528s-2.638-1.737-2.561-3.864h0Zm10.547,5.717q3.847,0.468,7.668,1.162-0.524-.969-1.067-1.935,0.183-1.065.365-2.129,1.186,0.2,2.37.426a1.514,1.514,0,0,1,1.139,1.858c-0.055.272-.109,0.544-0.164,0.816q-0.717.593-1.422,1.192,3.684,0.705,7.331,1.62-0.848-1.029-1.724-2.049l0.09-.382a2.629,2.629,0,0,0-1.734-3.09c1.763-.056,3.013-0.525,3.306-1.752,0.595-2.437-3.538-3.613-6.611-4.153-1.456-.277-5.293-0.891-8.362-1.223q1.152,1.006,2.272,2.032-0.437,3.105-.872,6.21Q617.052,272.992,615.773,273.7Zm7.19-4.211,0.522-3.044q0.584,0.1,1.165.2c1.436,0.254,3.273.751,2.979,2.165-0.254,1.23-1.339,1.271-3.527.875Q623.534,269.589,622.963,269.491Zm11.264,7.8q4.515,1.218,8.954,2.762-1-1.257-2.045-2.5,1.028-3.161,2.054-6.319,0.753,0.245,1.5.5,1.045,1.854,2.021,3.722,0.795-1.945,1.6-3.888-4.383-1.6-8.844-2.9a0.2,0.2,0,0,1-.008.026l-0.031-.037q-2.349-.684-4.714-1.284-0.433,2.057-.873,4.111,1.81-1.005,3.674-1.963,0.788,0.219,1.573.448-0.93,3.189-1.861,6.379-1.512.452-3,.938h0Zm12.5,2.581a1.682,1.682,0,0,0,1.1,2.126,0.873,0.873,0,0,0,.146.05,4.724,4.724,0,0,1-1.575,1.184q0.3,0.327.591,0.657a4.1,4.1,0,0,0,3.362-2.426,1.853,1.853,0,0,0-1.17-2.513,1.767,1.767,0,0,0-2.452.922h0ZM657.3,285.91q4.27,2.07,8.416,4.466-0.771-1.435-1.585-2.862l3.2-5.824q0.705,0.387,1.407.785,0.705,2.032,1.339,4.067,1.146-1.759,2.3-3.518-4.08-2.442-8.285-4.586l-0.012.024-0.025-.043q-2.212-1.13-4.456-2.174-0.807,1.94-1.618,3.879,1.983-.644,4.012-1.225,0.744,0.368,1.484.746l-3.014,5.921Q658.864,285.718,657.3,285.91Zm10.742,5.844q2.832,1.716,5.594,3.588-0.5-1.38-1.042-2.758,1.2-1.846,2.4-3.692,1.755,4.8,3.1,9.609,0.87,0.645,1.732,1.3l4.844-6.353q1.365-.037,2.743-0.045-2.706-2.139-5.49-4.127,0.471,1.394.911,2.789l-1.872,2.541q-1.226-3.941-2.717-7.871-2.694-1.8-5.449-3.459,0.62,1.488,1.2,2.98l-3.228,5.154Q669.393,291.569,668.038,291.754ZM688.905,301.9q3.167,2.755,6.2,5.738l1.147-1.169q-3.069-3.019-6.275-5.807Q689.441,301.285,688.905,301.9Z" transform="translate(-350 -263)"/>
</svg>
