<?xml version="1.0" standalone="no"?><!-- Generator: Gravit.io --><svg xmlns="http://www.w3.org/2000/svg" xmlns:xlink="http://www.w3.org/1999/xlink" style="isolation:isolate" viewBox="930 -38 362 362" width="362" height="362"><path d=" M 1131.3 324 L 1090.417 324 C 1077.12 324 1066.227 313.09 1066.227 299.772 L 1066.227 290.138 C 1066.227 289.288 1065.803 286.029 1062.408 284.754 C 1061.984 284.612 1061.701 284.47 1061.418 284.329 C 1055.618 282.345 1049.818 279.937 1044.442 277.103 C 1044.159 276.961 1043.735 276.82 1043.452 276.678 C 1042.462 276.678 1039.491 278.236 1037.794 279.512 L 1031.852 285.462 C 1022.374 294.955 1007.097 294.955 997.619 285.462 L 968.478 256.417 C 959 246.924 959 231.623 968.478 222.13 L 973.853 216.746 C 977.955 212.637 975.551 207.112 975.551 206.97 C 975.268 206.403 974.985 205.836 974.843 205.128 C 973.146 201.303 971.448 197.477 970.175 193.652 C 970.034 193.227 969.751 192.943 969.609 192.518 C 967.629 187.701 961.122 187.559 960.839 187.559 L 954.19 187.559 C 940.893 187.559 930 176.65 930 163.332 L 930 122.385 C 930 109.067 940.893 98.157 954.19 98.157 L 960.839 98.157 C 960.98 98.157 967.629 98.016 969.609 93.198 C 969.751 92.773 969.892 92.348 970.175 92.065 C 971.59 88.24 973.146 84.414 974.843 80.589 C 974.985 80.022 975.268 79.455 975.551 78.888 C 975.834 78.038 977.814 73.079 973.853 69.112 L 968.478 63.728 C 959 54.236 959 38.934 968.478 29.441 L 997.477 0.396 C 1006.955 -9.097 1022.233 -9.097 1031.711 0.396 L 1037.652 6.347 C 1039.633 7.764 1042.603 9.322 1043.735 9.039 C 1043.877 8.897 1044.018 8.897 1044.159 8.897 C 1049.676 6.205 1055.476 3.655 1061.418 1.671 C 1061.701 1.53 1062.125 1.388 1062.408 1.246 C 1065.803 -0.029 1066.086 -3.429 1066.227 -4.279 L 1066.227 -13.772 C 1066.227 -27.09 1077.12 -38 1090.417 -38 L 1131.3 -38 C 1144.597 -38 1155.49 -27.09 1155.49 -13.772 L 1155.49 -4.138 C 1155.49 -3.288 1155.914 -0.029 1159.309 1.246 C 1159.733 1.388 1160.016 1.53 1160.299 1.671 C 1166.241 3.796 1171.899 6.205 1177.416 8.897 C 1177.699 9.039 1177.982 9.18 1178.406 9.322 C 1179.255 9.322 1182.084 7.905 1184.206 6.488 L 1190.148 0.538 C 1199.626 -8.955 1214.903 -8.955 1224.381 0.538 L 1253.381 29.583 C 1262.859 39.076 1262.859 54.377 1253.381 63.87 L 1248.005 69.254 C 1244.186 73.221 1246.025 78.18 1246.449 79.172 C 1246.591 79.597 1246.874 80.164 1247.015 80.589 C 1248.854 84.414 1250.41 88.381 1251.825 92.207 C 1251.966 92.632 1252.249 92.915 1252.391 93.34 C 1254.371 98.157 1260.878 98.299 1261.161 98.299 L 1267.81 98.299 C 1281.107 98.299 1292 109.209 1292 122.527 L 1292 163.473 C 1292 176.791 1281.107 187.701 1267.81 187.701 L 1261.161 187.701 C 1261.02 187.701 1254.371 187.843 1252.391 192.66 C 1252.26 193.064 1252.069 193.446 1251.825 193.793 C 1250.41 197.619 1248.854 201.444 1247.157 205.27 C 1247.015 205.836 1246.732 206.403 1246.449 207.112 C 1246.166 207.962 1244.186 212.921 1248.147 216.888 L 1253.522 222.272 C 1258.049 226.805 1260.596 232.898 1260.596 239.415 C 1260.596 245.933 1258.049 252.025 1253.522 256.559 L 1224.523 285.604 C 1215.045 295.097 1199.767 295.097 1190.289 285.604 L 1184.348 279.653 C 1182.367 278.236 1179.397 276.82 1178.265 276.961 C 1178.123 277.103 1177.841 277.103 1177.699 277.245 C 1172.182 279.937 1166.382 282.345 1160.582 284.47 C 1160.299 284.612 1159.875 284.754 1159.592 284.895 C 1155.914 286.312 1155.773 290.279 1155.773 290.279 L 1155.773 299.914 C 1155.49 313.09 1144.597 324 1131.3 324 L 1131.3 324 Z  M 1072.735 266.052 C 1084.193 272.002 1087.305 283.62 1087.305 289.996 L 1087.305 299.631 C 1087.305 301.189 1088.72 302.606 1090.276 302.606 L 1131.158 302.606 C 1132.714 302.606 1134.129 301.189 1134.129 299.631 L 1134.129 289.996 C 1134.129 283.62 1137.241 271.861 1148.841 265.91 C 1149.548 265.343 1150.538 264.918 1151.387 264.635 C 1157.894 262.51 1164.26 259.818 1170.202 256.701 C 1171.899 255.85 1173.738 255.284 1175.577 255.567 C 1186.611 254.292 1196.513 262.226 1197.787 263.218 C 1198.07 263.501 1198.352 263.643 1198.494 263.926 L 1204.86 270.302 C 1205.991 271.436 1207.972 271.436 1209.104 270.302 L 1238.103 241.257 C 1238.81 240.549 1238.952 239.557 1238.952 239.132 C 1238.952 238.707 1238.81 237.715 1238.103 237.007 L 1232.728 231.623 C 1222.684 221.563 1223.108 208.953 1225.655 201.019 C 1225.796 200.027 1226.079 199.036 1226.503 198.186 C 1228.625 193.652 1230.606 189.118 1232.162 184.584 C 1232.445 183.592 1233.011 182.742 1233.576 181.892 C 1240.084 169.424 1253.381 166.023 1260.878 166.165 L 1267.527 166.165 C 1269.083 166.165 1270.498 164.748 1270.498 163.19 L 1270.498 122.243 C 1270.498 120.685 1269.083 119.268 1267.527 119.268 L 1260.737 119.268 C 1253.381 119.268 1239.942 115.868 1233.576 103.4 C 1233.011 102.691 1232.586 101.699 1232.303 100.849 C 1230.746 96.185 1228.855 91.639 1226.645 87.248 C 1226.22 86.256 1225.937 85.264 1225.655 84.272 C 1223.25 76.48 1222.825 63.87 1232.869 53.811 L 1238.245 48.427 C 1239.376 47.293 1239.376 45.31 1238.245 44.176 L 1209.245 15.131 C 1208.113 13.998 1206.133 13.998 1205.001 15.131 L 1198.635 21.507 L 1197.928 22.215 C 1196.655 23.207 1186.753 31.141 1175.719 29.866 C 1173.88 30.008 1172.041 29.583 1170.343 28.591 C 1164.402 25.474 1158.177 22.782 1151.529 20.657 C 1150.538 20.373 1149.69 19.948 1148.841 19.382 C 1137.383 13.431 1134.27 1.813 1134.27 -4.705 L 1134.27 -14.339 C 1134.27 -15.897 1132.856 -17.314 1131.3 -17.314 L 1090.417 -17.314 C 1088.861 -17.314 1087.447 -15.897 1087.447 -14.339 L 1087.447 -4.705 C 1087.447 1.671 1084.335 13.431 1072.735 19.382 C 1072.027 19.948 1071.037 20.373 1070.188 20.657 C 1063.681 22.782 1057.315 25.474 1051.374 28.591 C 1049.676 29.441 1047.837 29.866 1045.998 29.866 C 1034.964 31 1025.062 23.207 1023.789 22.215 C 1023.506 21.932 1023.223 21.79 1023.082 21.507 L 1016.716 15.131 C 1015.584 13.998 1013.604 13.998 1012.472 15.131 L 983.472 44.176 C 982.341 45.31 982.341 47.293 983.472 48.427 L 988.848 53.811 C 999.033 64.012 998.467 76.622 995.921 84.414 C 995.78 85.406 995.497 86.256 995.072 87.248 C 992.946 91.678 991.058 96.218 989.414 100.849 C 989.131 101.841 988.565 102.691 987.999 103.541 C 981.492 116.009 967.77 119.268 960.697 119.268 L 954.048 119.268 C 952.492 119.268 951.078 120.685 951.078 122.243 L 951.078 163.19 C 951.078 164.748 952.492 166.165 954.048 166.165 L 960.839 166.165 C 968.195 166.165 981.633 169.566 987.999 182.034 C 988.565 182.742 988.989 183.734 989.272 184.584 C 990.828 189.118 992.667 193.652 994.931 198.186 C 995.355 199.177 995.638 200.169 995.78 201.161 C 998.184 208.953 998.75 221.563 988.565 231.623 L 983.19 237.007 C 982.058 238.14 982.058 240.124 983.19 241.257 L 1012.189 270.302 C 1013.321 271.436 1015.301 271.436 1016.433 270.302 L 1022.799 263.926 L 1023.506 263.218 C 1024.779 262.226 1034.682 254.292 1045.716 255.567 C 1047.555 255.425 1049.394 255.85 1051.091 256.701 C 1057.032 259.818 1063.398 262.51 1069.905 264.635 C 1071.179 265.06 1072.027 265.485 1072.735 266.052 L 1072.735 266.052 Z  M 1110.788 236.44 C 1059.296 236.44 1017.282 194.502 1017.282 142.787 C 1017.282 91.215 1059.154 49.135 1110.788 49.135 C 1162.28 49.135 1204.294 91.073 1204.294 142.787 C 1204.294 194.502 1162.421 236.44 1110.788 236.44 Z  M 1110.788 70.529 C 1070.896 70.529 1038.501 102.975 1038.501 142.929 C 1038.501 182.884 1070.896 215.329 1110.788 215.329 C 1150.68 215.329 1183.075 182.884 1183.075 142.929 C 1183.075 102.975 1150.68 70.529 1110.788 70.529 Z " fill="rgb(140,98,232)" fill-opacity="0.2"/></svg>